REM DIRINDEX 1\2,1\3,1\4,1\5,1\6
REM DIRNAME cjc030,folder01,folder02,folder03,folder04,folder05
TITLE ""
FILE "Disc1Track17.mp3" MP3
  TRACK 01 AUDIO
    TITLE "2:cjc030_00394"
    INDEX 01 00:00:00
  TRACK 02 AUDIO
    TITLE "0:"
    INDEX 01 00:03:29
  TRACK 03 AUDIO
    TITLE "3:cjc030_00395"
    INDEX 01 00:03:68
  TRACK 04 AUDIO
    TITLE "0:"
    INDEX 01 00:05:12
  TRACK 05 AUDIO
    TITLE "4:cjc030_00396"
    INDEX 01 00:05:20
  TRACK 06 AUDIO
    TITLE "0:"
    INDEX 01 00:07:70
  TRACK 07 AUDIO
    TITLE "5:cjc030_00397"
    INDEX 01 00:07:74
  TRACK 08 AUDIO
    TITLE "0:"
    INDEX 01 00:09:22
  TRACK 09 AUDIO
    TITLE "6:cjc030_00398"
    INDEX 01 00:09:36
  TRACK 10 AUDIO
    TITLE "0:"
    INDEX 01 00:12:46
  TRACK 11 AUDIO
    TITLE "3:cjc030_00399"
    INDEX 01 00:13:20
  TRACK 12 AUDIO
    TITLE "0:"
    INDEX 01 00:14:41
  TRACK 13 AUDIO
    TITLE "4:cjc030_00400"
    INDEX 01 00:14:51
  TRACK 14 AUDIO
    TITLE "0:"
    INDEX 01 00:16:69
  TRACK 15 AUDIO
    TITLE "5:cjc030_00401"
    INDEX 01 00:17:02
  TRACK 16 AUDIO
    TITLE "0:"
    INDEX 01 00:18:23
  TRACK 17 AUDIO
    TITLE "6:cjc030_00402"
    INDEX 01 00:18:39
  TRACK 18 AUDIO
    TITLE "0:"
    INDEX 01 00:22:50
  TRACK 19 AUDIO
    TITLE "3:cjc030_00403"
    INDEX 01 00:23:22
  TRACK 20 AUDIO
    TITLE "0:"
    INDEX 01 00:24:63
  TRACK 21 AUDIO
    TITLE "4:cjc030_00404"
    INDEX 01 00:24:74
  TRACK 22 AUDIO
    TITLE "0:"
    INDEX 01 00:26:20
  TRACK 23 AUDIO
    TITLE "5:cjc030_00405"
    INDEX 01 00:26:30
  TRACK 24 AUDIO
    TITLE "0:"
    INDEX 01 00:27:69
  TRACK 25 AUDIO
    TITLE "3:cjc030_00406"
    INDEX 01 00:28:43
  TRACK 26 AUDIO
    TITLE "0:"
    INDEX 01 00:29:74
  TRACK 27 AUDIO
    TITLE "4:cjc030_00407"
    INDEX 01 00:30:08
  TRACK 28 AUDIO
    TITLE "0:"
    INDEX 01 00:31:67
  TRACK 29 AUDIO
    TITLE "5:cjc030_00408"
    INDEX 01 00:32:03
  TRACK 30 AUDIO
    TITLE "0:"
    INDEX 01 00:33:32
  TRACK 31 AUDIO
    TITLE "6:cjc030_00409"
    INDEX 01 00:33:44
  TRACK 32 AUDIO
    TITLE "0:"
    INDEX 01 00:36:07
  TRACK 33 AUDIO
    TITLE "3:cjc030_00410"
    INDEX 01 00:36:50
  TRACK 34 AUDIO
    TITLE "0:"
    INDEX 01 00:38:06
  TRACK 35 AUDIO
    TITLE "4:cjc030_00411"
    INDEX 01 00:38:14
  TRACK 36 AUDIO
    TITLE "0:"
    INDEX 01 00:39:33
  TRACK 37 AUDIO
    TITLE "5:cjc030_00412"
    INDEX 01 00:39:41
  TRACK 38 AUDIO
    TITLE "0:"
    INDEX 01 00:40:73
  TRACK 39 AUDIO
    TITLE "6:cjc030_00413"
    INDEX 01 00:41:12
  TRACK 40 AUDIO
    TITLE "0:"
    INDEX 01 00:43:15
  TRACK 41 AUDIO
    TITLE "3:cjc030_00414"
    INDEX 01 00:43:62
  TRACK 42 AUDIO
    TITLE "0:"
    INDEX 01 00:45:12
  TRACK 43 AUDIO
    TITLE "4:cjc030_00415"
    INDEX 01 00:45:22
  TRACK 44 AUDIO
    TITLE "0:"
    INDEX 01 00:47:34
  TRACK 45 AUDIO
    TITLE "5:cjc030_00416"
    INDEX 01 00:47:44
  TRACK 46 AUDIO
    TITLE "0:"
    INDEX 01 00:48:69
  TRACK 47 AUDIO
    TITLE "6:cjc030_00417"
    INDEX 01 00:49:08
  TRACK 48 AUDIO
    TITLE "0:"
    INDEX 01 00:52:18
  TRACK 49 AUDIO
    TITLE "3:cjc030_00418"
    INDEX 01 00:52:65
  TRACK 50 AUDIO
    TITLE "0:"
    INDEX 01 00:54:21
  TRACK 51 AUDIO
    TITLE "4:cjc030_00419"
    INDEX 01 00:54:27
  TRACK 52 AUDIO
    TITLE "0:"
    INDEX 01 00:55:16
  TRACK 53 AUDIO
    TITLE "5:cjc030_00420"
    INDEX 01 00:55:24
  TRACK 54 AUDIO
    TITLE "0:"
    INDEX 01 00:56:53
  TRACK 55 AUDIO
    TITLE "3:cjc030_00421"
    INDEX 01 00:57:27
  TRACK 56 AUDIO
    TITLE "0:"
    INDEX 01 00:58:58
  TRACK 57 AUDIO
    TITLE "4:cjc030_00422"
    INDEX 01 00:58:66
  TRACK 58 AUDIO
    TITLE "0:"
    INDEX 01 01:00:02
  TRACK 59 AUDIO
    TITLE "5:cjc030_00423"
    INDEX 01 01:00:13
  TRACK 60 AUDIO
    TITLE "0:"
    INDEX 01 01:01:42
  TRACK 61 AUDIO
    TITLE "3:cjc030_00424"
    INDEX 01 01:02:14
  TRACK 62 AUDIO
    TITLE "0:"
    INDEX 01 01:03:45
  TRACK 63 AUDIO
    TITLE "4:cjc030_00425"
    INDEX 01 01:03:53
  TRACK 64 AUDIO
    TITLE "0:"
    INDEX 01 01:05:58
  TRACK 65 AUDIO
    TITLE "5:cjc030_00426"
    INDEX 01 01:05:64
  TRACK 66 AUDIO
    TITLE "0:"
    INDEX 01 01:07:23
  TRACK 67 AUDIO
    TITLE "6:cjc030_00427"
    INDEX 01 01:07:35
  TRACK 68 AUDIO
    TITLE "0:"
    INDEX 01 01:09:18
  TRACK 69 AUDIO
    TITLE "3:cjc030_00428"
    INDEX 01 01:09:65
  TRACK 70 AUDIO
    TITLE "0:"
    INDEX 01 01:11:11
  TRACK 71 AUDIO
    TITLE "4:cjc030_00429"
    INDEX 01 01:11:19
  TRACK 72 AUDIO
    TITLE "0:"
    INDEX 01 01:12:24
  TRACK 73 AUDIO
    TITLE "5:cjc030_00430"
    INDEX 01 01:12:34
  TRACK 74 AUDIO
    TITLE "0:"
    INDEX 01 01:13:53
